<?xml version="1.0" encoding="UTF-8" standalone="no"?>
<svg
   width="128pt"
   height="128pt"
   version="1.1"
   viewBox="0 0 128 128"
   id="svg662"
   sodipodi:docname="hex_bee_icon.svg"
   inkscape:version="1.2.1 (9c6d41e410, 2022-07-14)"
   xmlns:inkscape="http://www.inkscape.org/namespaces/inkscape"
   xmlns:sodipodi="http://sodipodi.sourceforge.net/DTD/sodipodi-0.dtd"
   xmlns="http://www.w3.org/2000/svg"
   xmlns:svg="http://www.w3.org/2000/svg">
  <defs
     id="defs666" />
  <sodipodi:namedview
     id="namedview664"
     pagecolor="#ffffff"
     bordercolor="#000000"
     borderopacity="0.25"
     inkscape:showpageshadow="2"
     inkscape:pageopacity="0.0"
     inkscape:pagecheckerboard="0"
     inkscape:deskcolor="#d1d1d1"
     inkscape:document-units="pt"
     showgrid="false"
     inkscape:zoom="2.4521484"
     inkscape:cx="71.569894"
     inkscape:cy="108.88411"
     inkscape:window-width="1920"
     inkscape:window-height="1017"
     inkscape:window-x="-8"
     inkscape:window-y="-8"
     inkscape:window-maximized="1"
     inkscape:current-layer="svg662" />
  <path
     sodipodi:type="star"
     style="fill:#ffcc00;stroke-width:0.75"
     id="path668"
     inkscape:flatsided="true"
     sodipodi:sides="6"
     sodipodi:cx="-19.574671"
     sodipodi:cy="-12.540024"
     sodipodi:r1="80.122719"
     sodipodi:r2="69.388306"
     sodipodi:arg1="1.0559116"
     sodipodi:arg2="1.5795103"
     inkscape:rounded="0"
     inkscape:randomized="0"
     d="m 19.880522,57.194744 -80.119677,-0.698185 -39.455193,-69.734767 40.664484,-69.036583 80.119677,0.698184 39.455193,69.734768 z"
     transform="matrix(0.76904321,0,0,0.73684214,79.130232,73.163552)" />
  <g
     id="g675"
     transform="matrix(0.63522497,0,0,0.62718043,24.279421,20.079084)">
    <g
       id="g660"
       transform="translate(1.223417,-3.3643967)">
      <path
         d="m 119.69,39.188 c -2.6562,-2.7188 -8.0977,-3.7344 -12.617,-1.3828 -0.22656,-0.28516 -0.45703,-0.55078 -0.69531,-0.78516 -0.25391,-0.25391 -0.51953,-0.47656 -0.80078,-0.69141 2.3203,-4.5703 1.0508,-10.277 -1.918,-13.176 -2.6172,-2.5547 -6.1602,-2.707 -9.25,-0.39062 -0.84766,0.63672 -1.0195,1.8398 -0.38281,2.6875 0.63672,0.84766 1.8398,1.0195 2.6875,0.38281 1.5977,-1.1992 2.9922,-1.1758 4.2617,0.06641 1.9336,1.8906 2.6719,5.9102 1.0508,8.8789 -0.63281,-0.11719 -1.2969,-0.18359 -1.9961,-0.18359 -3.0742,0 -6.1367,1.1484 -7.9648,1.8359 l -0.38281,0.14453 c -1.6484,0.61328 -3.2266,1.2539 -4.7383,1.9258 -3.9766,-1.0391 -8.2461,-1.793 -12.07,-1.793 -4.875,0 -8.4727,1.2109 -10.695,3.6016 -1.8789,2.0195 -2.7031,4.7812 -2.4531,8.2148 0.25391,3.4492 1.6914,5.9336 4.1641,7.3203 -0.44531,0.80078 -0.86328,1.6172 -1.2227,2.4492 -4.4375,10.258 -0.84766,19.012 -0.69141,19.383 l 0.29688,0.70703 0.70312,0.30859 c 0.16016,0.07031 3.9727,1.707 9.5078,1.707 3.9062,0 8.3984,-0.78516 12.98,-3.1797 0.02344,0.04687 0.03906,0.09766 0.0625,0.14062 0.94922,1.8438 3.0156,4.1133 7.4727,4.4375 0.40234,0.02734 0.79297,0.04297 1.1719,0.04297 3.9102,0 6.9219,-1.582 8.707,-4.5703 2.9727,-4.9805 2.0703,-13.172 0.23438,-20.324 0.90234,-1.8945 1.7773,-3.9258 2.6133,-6.1211 1.5703,-4.1211 1.6562,-7.2305 1.0586,-9.5625 2.9609,-1.5938 6.5391,-1.0586 8.168,0.60547 1.043,1.0664 0.97266,2.4062 -0.21094,3.9844 -0.63672,0.84766 -0.46484,2.0547 0.38281,2.6875 0.34766,0.25781 0.75,0.38281 1.1523,0.38281 0.58203,0 1.1602,-0.26562 1.5391,-0.76953 2.7578,-3.6875 1.7461,-7.0508 -0.125,-8.9648 z m -18.117,36.117 c -1.2188,2.0469 -3.2305,2.8906 -6.3008,2.6641 -2.9062,-0.21094 -3.8672,-1.4531 -4.3398,-2.3672 -0.06641,-0.125 -0.10156,-0.27734 -0.15625,-0.41406 -0.50391,-1.2188 -0.64062,-2.7539 -0.49609,-4.5 0.10156,-1.207 0.32031,-2.5 0.65234,-3.8633 0.53516,-2.1797 1.3281,-4.5039 2.2422,-6.8086 0.68359,-1.7148 1.4297,-3.418 2.1953,-5.043 1.0352,-2.1992 2.0977,-4.2539 3.0547,-6 l 0.10547,0.10547 c 1.4414,3.5547 2.9531,8.3984 3.7852,13.105 0.91016,5.1836 1.0039,10.191 -0.74219,13.121 z M 65.546,48.25 c -0.17188,-2.3555 0.29688,-4.0977 1.4336,-5.3203 1.4688,-1.5781 4.1211,-2.3789 7.8867,-2.3789 2.0898,0 4.3516,0.25781 6.625,0.66797 4.7578,0.86328 9.5625,2.4219 12.965,3.7969 l 0.07031,0.07031 c -1.5938,0.87109 -3.6719,1.9609 -5.9961,3.0586 -1.5938,0.75391 -3.2969,1.5078 -5.0391,2.1992 -2.2734,0.90625 -4.6055,1.6914 -6.8242,2.2266 -1.5,0.35938 -2.9453,0.60156 -4.2852,0.67578 -0.30469,0.01953 -0.61328,0.03906 -0.90625,0.03906 -1.4688,0 -2.6328,-0.21484 -3.5273,-0.66797 -1.4883,-0.75 -2.2383,-2.1641 -2.4023,-4.3672 z m 25.871,2.7773 1.0547,1.0547 c -0.75781,1.5469 -1.5312,3.2266 -2.2617,4.9766 l -3.7734,-3.7734 c 1.75,-0.73047 3.4375,-1.5039 4.9805,-2.2578 z m -11.621,4.668 8.0234,8.0234 c -0.59766,2.0391 -1.0508,4.0586 -1.2656,5.9727 l -12.715,-12.715 c 1.8945,-0.21875 3.9141,-0.67578 5.957,-1.2812 z m -2.7969,20.734 -10.492,-10.492 c 0.23047,-1.7891 0.70703,-3.7227 1.5234,-5.7188 l 14.832,14.832 c -2.0312,0.75781 -4.0039,1.1875 -5.8633,1.3789 z m 27.129,-26.969 c -0.23828,0.625 -0.48047,1.2305 -0.72266,1.8242 -1.0078,-2.9492 -2.0391,-5.3984 -2.7891,-6.8984 -0.0937,-0.35938 -0.28516,-0.67969 -0.5625,-0.92969 -0.25,-0.27344 -0.57422,-0.46484 -0.93359,-0.55859 -1.5195,-0.76953 -3.7422,-1.707 -6.3672,-2.6211 0.08594,-0.03125 0.17188,-0.06641 0.25781,-0.10156 l 0.39844,-0.14844 c 1.5859,-0.59375 4.2383,-1.5898 6.6172,-1.5898 1.5703,0 2.7578,0.42188 3.6328,1.2969 2.0039,2.0039 2.1641,5.2773 0.46875,9.7266 z"
         id="path652" />
      <path
         d="m 57.262,84.719 c -0.73438,0 -1.4414,-0.42578 -1.7578,-1.1445 -0.42969,-0.96875 0.0078,-2.1055 0.97656,-2.5312 1.7539,-0.77734 2.7969,-1.2969 2.8203,-1.3086 0.94922,-0.47266 2.1016,-0.08594 2.5742,0.85938 0.47656,0.94531 0.08984,2.1016 -0.85547,2.5781 0,0 -1.1055,0.55469 -2.9805,1.3828 -0.25391,0.11328 -0.51953,0.16406 -0.77734,0.16406 z"
         id="path654" />
      <path
         d="m 19.746,115.69 c -0.80469,0 -1.5508,-0.50781 -1.8203,-1.3125 -0.33594,-1.0039 0.20703,-2.0938 1.2109,-2.4297 2.0586,-0.6875 3.9844,-1.4805 5.7266,-2.3555 0.94531,-0.48047 2.1016,-0.0977 2.5781,0.85156 0.47656,0.94531 0.09375,2.1016 -0.85156,2.5781 -1.9062,0.95703 -4,1.8203 -6.2344,2.5703 -0.20312,0.0664 -0.41016,0.0977 -0.60938,0.0977 z m 11.414,-5.9492 c -0.54297,0 -1.082,-0.23047 -1.4648,-0.67578 -0.6875,-0.80469 -0.58984,-2.0195 0.21484,-2.707 0.26562,-0.22656 0.51172,-0.45312 0.75,-0.67969 1.2773,-1.2422 2.4805,-2.5039 3.5781,-3.75 0.69922,-0.79688 1.9141,-0.875 2.707,-0.17578 0.79688,0.69922 0.875,1.9141 0.17578,2.707 -1.1602,1.3203 -2.4336,2.6562 -3.7812,3.9688 -0.29297,0.28516 -0.60547,0.56641 -0.93359,0.84766 -0.36328,0.3125 -0.80469,0.46484 -1.2461,0.46484 z m 8.4961,-9.7227 c -0.37109,0 -0.74609,-0.10938 -1.0781,-0.33203 -0.875,-0.59766 -1.1016,-1.7891 -0.50781,-2.668 1.2188,-1.793 2.2305,-3.5859 3.0078,-5.3281 0.42969,-0.97266 1.5703,-1.4062 2.5312,-0.97266 0.96875,0.42969 1.4062,1.5664 0.97266,2.5312 -0.86719,1.9492 -1.9922,3.9453 -3.3398,5.9297 -0.37109,0.54688 -0.97266,0.83984 -1.5859,0.83984 z m -7.1719,-8.1484 c -0.98828,0 -1.8281,-0.75781 -1.9102,-1.7578 -0.08984,-1.0547 0.69531,-1.9844 1.7539,-2.0742 1.9023,-0.16016 3.9727,-0.47656 6.1523,-0.94531 1.0312,-0.21875 2.0586,0.4375 2.2773,1.4766 0.22266,1.0352 -0.4375,2.0586 -1.4766,2.2773 -2.3398,0.5 -4.5703,0.83984 -6.6328,1.0156 -0.05469,0.0078 -0.10938,0.0078 -0.16406,0.0078 z m -6.4531,-0.08203 c -0.08203,0 -0.16797,-0.0039 -0.25391,-0.01563 -2.6367,-0.34766 -4.9375,-1.1016 -6.8438,-2.2383 -0.91016,-0.54297 -1.207,-1.7227 -0.66406,-2.6328 0.54688,-0.91406 1.7227,-1.207 2.6328,-0.66406 1.4531,0.86719 3.2656,1.4492 5.3789,1.7305 1.0508,0.13672 1.7891,1.1016 1.6523,2.1562 -0.12891,0.96094 -0.95312,1.6641 -1.9023,1.6641 z m 19.109,-2.5312 c -0.82422,0 -1.582,-0.53516 -1.8359,-1.3594 -0.03906,-0.12891 -0.0625,-0.25781 -0.07422,-0.38281 -0.33203,-0.41016 -0.49609,-0.95312 -0.40234,-1.5156 0.15234,-0.95312 0.23047,-1.8984 0.23047,-2.8164 0,-1 -0.09375,-1.9961 -0.27734,-2.9492 -0.19922,-1.0391 0.48047,-2.0508 1.5195,-2.25 1.0312,-0.19922 2.0469,0.48047 2.25,1.5195 0.23047,1.1953 0.34766,2.4297 0.34766,3.6758 0,0.52734 -0.02344,1.0664 -0.0625,1.6055 1.2383,-0.41016 2.4922,-0.85547 3.7617,-1.332 0.98828,-0.37109 2.0977,0.12891 2.4727,1.1211 0.37109,0.99219 -0.12891,2.1016 -1.1211,2.4727 -2.1211,0.79688 -4.2227,1.5117 -6.2422,2.1289 -0.19141,0.05859 -0.38281,0.08203 -0.56641,0.08203 z m -29.551,-4.1328 c -0.70703,0 -1.3828,-0.39062 -1.7188,-1.0625 -0.89062,-1.793 -1.4688,-3.8945 -1.6992,-6.25 -0.02734,-0.23828 -0.04297,-0.47656 -0.05859,-0.71484 -0.07031,-1.0586 0.73438,-1.9727 1.793,-2.0391 1.0742,-0.07422 1.9727,0.73437 2.0391,1.793 0.01172,0.1875 0.02734,0.37891 0.04688,0.57422 0.1875,1.8945 0.63281,3.5508 1.3203,4.9258 0.47266,0.94922 0.08594,2.1016 -0.86328,2.5742 -0.27734,0.13281 -0.57031,0.19922 -0.85938,0.19922 z m 26.66,-9.293 c -0.625,0 -1.2422,-0.30469 -1.6094,-0.87109 -1.0312,-1.5781 -2.3633,-2.9961 -3.9609,-4.2109 -0.84375,-0.64062 -1.0078,-1.8438 -0.36719,-2.6914 0.64062,-0.84766 1.8438,-1.0117 2.6914,-0.36719 1.9492,1.4805 3.582,3.2188 4.8555,5.168 0.57812,0.88672 0.32812,2.0781 -0.5625,2.6562 -0.32031,0.21484 -0.6875,0.31641 -1.0469,0.31641 z m -27.195,-3.2539 c -0.27344,0 -0.55469,-0.05859 -0.82031,-0.1875 -0.95703,-0.45312 -1.3672,-1.5977 -0.91406,-2.5547 1.1133,-2.3516 2.9805,-4.2109 5.3984,-5.375 0.95312,-0.46094 2.1016,-0.05859 2.5625,0.89453 0.46094,0.95313 0.05859,2.1016 -0.89453,2.5625 -1.6406,0.79297 -2.8516,1.9883 -3.5938,3.5586 -0.32812,0.69531 -1.0195,1.1016 -1.7383,1.1016 z m 17.121,-4.5039 c -0.21484,0 -0.4375,-0.03516 -0.65234,-0.11328 -1.8867,-0.67969 -3.8633,-1.0586 -5.7188,-1.0938 -1.0586,-0.02344 -1.9023,-0.89844 -1.8828,-1.957 0.02344,-1.0586 0.89062,-1.8398 1.957,-1.8828 2.2656,0.04297 4.668,0.50391 6.9414,1.3203 0.99609,0.35938 1.5156,1.4609 1.1562,2.457 -0.27734,0.78125 -1.0156,1.2695 -1.8008,1.2695 z"
         id="path656" />
      <path
         d="m 10.238,117.93 c -0.94141,0 -1.7617,-0.69141 -1.8984,-1.6484 -0.14844,-1.0508 0.57812,-2.0234 1.6289,-2.1719 1.0039,-0.14062 2.0273,-0.32031 3.043,-0.52734 1.0391,-0.21094 2.0547,0.45703 2.2656,1.4961 0.21094,1.0391 -0.45703,2.0547 -1.4961,2.2656 -1.0938,0.22266 -2.1914,0.41406 -3.2695,0.56641 -0.08984,0.0117 -0.18359,0.0195 -0.27344,0.0195 z"
         id="path658" />
    </g>
  </g>
</svg>
